# xmcd
#
# Track frame offsets: 
#        150
#        17400
#        35856
#        53413
#        68970
#        87695
#        102508
#        120211
#        135540
#        150940
#        169094
#        193378
#        209012
#        227483
#        241361
#        258856
#        277010
#        292461
#        309393
#        327972
#        342540
#
# Disc length: 4792 seconds
#
# Revision: 0
# Processed by: cddbd v1.5.2PL0 Copyright (c) Steve Scherf et al.
# Submitted via: ExactAudioCopy v0.99pb4
#
DISCID=3b12b615
DTITLE=Various Artist - prevue promo 1111A-1
DYEAR=2003
DGENRE=pop
TTITLE0=Dana Glover - Rain(Single Edit)
TTITLE1=Eric Clapton - Higher Ground
TTITLE2=Avril Lavigne - Losing Grip
TTITLE3=All-American Rejects, The - Swing, Swing(Radio Edit Remix)
TTITLE4=NAS (Nasir Jones) - I Can
TTITLE5=B2K - Bump That(Clean)
TTITLE6=Lil' Kim feat. Mr. Cheeks - Jump Off, The(Clean)
TTITLE7=4th Generation - She's So Gangsta(Radio Edit)
TTITLE8=4th Generation - She's So Gangsta(Club Edit)
TTITLE9=Mariah Carey feat Cam'ron, Juelz Santana, Jimmy Jones and Freewa
TTITLE9=y - Boy (I Need You- Remix)
TTITLE10=Diplomats, The feat. Cam'ron, Jimmy Jones and Juelz Santana - B
TTITLE10=uilt This City(Lyric Content)
TTITLE11=Butch Walker - Sober(Radio Version)
TTITLE12=Edwin McCain - I Want It All(
TTITLE13=Doyle Bramhall Sr. - Life By The Drop
TTITLE14=Minus 5 - Retrieval Of You
TTITLE15=Mark Knopfler - Devil Baby
TTITLE16=Pete YornCome Back Home
TTITLE17=Androids, The - Do It With Madonna(Radio Edit)
TTITLE18=SouthFM - Dear Claudia
TTITLE19=Blur - Crazy Beat
TTITLE20=Pillar - Fireproof
EXTD=
EXTT0=
EXTT1=
EXTT2=
EXTT3=
EXTT4=
EXTT5=
EXTT6=
EXTT7=
EXTT8=
EXTT9=
EXTT10=
EXTT11=
EXTT12=
EXTT13=
EXTT14=
EXTT15=
EXTT16=
EXTT17=
EXTT18=
EXTT19=
EXTT20=
PLAYORDER=
